<?xml version="1.0" standalone="no"?>
<!DOCTYPE svg PUBLIC "-//W3C//DTD SVG 20010904//EN"
 "http://www.w3.org/TR/2001/REC-SVG-20010904/DTD/svg10.dtd">
<svg version="1.0" xmlns="http://www.w3.org/2000/svg"
 width="160.000000pt" height="160.000000pt" viewBox="0 0 160.000000 160.000000"
 preserveAspectRatio="xMidYMid meet">
<metadata>
Created by potrace 1.11, written by Peter Selinger 2001-2013
</metadata>
<g transform="translate(0.000000,160.000000) scale(0.100000,-0.100000)"
fill="#000000" stroke="none">
<path d="M327 1560 c-87 -36 -139 -71 -194 -129 -45 -47 -113 -169 -113 -202
0 -11 -4 -19 -10 -19 -7 0 -10 -143 -10 -408 0 -442 0 -445 59 -559 35 -69
124 -157 200 -197 l69 -36 472 0 472 0 57 30 c120 65 213 174 251 297 19 60
20 93 20 447 0 381 0 383 -25 456 -30 89 -69 150 -132 211 -60 57 -98 80 -191
113 l-73 26 -392 -1 -392 0 -68 -29z"/>
</g>
</svg>
